<?xml version="1.0" encoding="UTF-8" ?>
<!DOCTYPE svg PUBLIC "-//W3C//DTD SVG 1.1//EN" "http://www.w3.org/Graphics/SVG/1.1/DTD/svg11.dtd">
<svg width="360pt" height="360pt" viewBox="0 0 360 360" version="1.1" xmlns="http://www.w3.org/2000/svg">
<g id="#754c0bf9">
<path fill="#754c0b" opacity="0.98" d=" M 135.02 90.01 C 157.70 89.98 180.38 89.99 203.06 90.00 C 202.98 97.43 202.90 104.86 202.76 112.28 L 202.27 112.27 C 179.97 111.86 157.65 111.65 135.37 112.61 C 134.82 135.06 134.96 157.52 135.01 179.98 C 135.02 187.65 135.01 195.33 135.00 203.00 C 127.33 202.99 119.67 202.99 112.00 203.00 C 111.99 172.68 111.99 142.35 112.00 112.03 C 119.66 112.01 127.32 111.99 134.98 111.98 C 134.99 104.65 135.01 97.33 135.02 90.01 Z" />
<path fill="#754c0b" opacity="0.98" d=" M 202.76 112.28 C 210.17 112.13 217.58 112.03 225.00 111.94 C 224.98 119.62 224.98 127.31 225.01 135.00 C 217.60 135.01 210.20 135.02 202.79 135.03 L 202.78 134.20 C 202.76 127.06 202.86 119.92 202.77 112.78 L 202.76 112.28 Z" />
<path fill="#754c0b" opacity="0.98" d=" M 225.01 135.00 C 232.33 135.00 239.66 135.00 247.00 135.00 C 247.01 165.00 247.00 195.00 247.00 225.00 C 239.66 225.00 232.33 224.99 225.00 224.99 C 225.00 209.99 225.00 195.00 225.00 180.00 C 224.99 172.33 224.99 164.67 225.00 157.00 C 225.00 149.66 225.00 142.33 225.01 135.00 Z" />
<path fill="#754c0b" opacity="0.98" d=" M 135.00 203.00 C 142.33 203.00 149.66 202.99 156.99 203.00 C 157.00 217.66 157.01 232.32 157.00 246.99 C 164.73 246.99 172.45 247.02 180.18 247.04 C 187.78 247.02 195.38 247.00 202.99 247.00 C 202.97 254.67 202.98 262.33 203.01 270.00 C 187.68 270.01 172.35 270.00 157.03 270.00 C 157.01 262.67 156.99 255.34 156.98 248.02 C 149.65 248.00 142.33 247.99 135.01 247.98 C 134.97 232.98 135.01 217.99 135.00 203.00 Z" />
<path fill="#754c0b" opacity="0.98" d=" M 203.02 225.02 C 210.34 225.01 217.67 225.00 225.00 224.99 C 224.99 232.32 224.99 239.66 225.00 247.00 C 217.66 246.98 210.33 246.99 202.99 247.00 C 203.00 239.67 203.01 232.35 203.02 225.02 Z" />
</g>
<g id="#d89617ff">
<path fill="#d89617" opacity="1.00" d=" M 135.37 112.61 C 157.65 111.65 179.97 111.86 202.27 112.27 L 202.27 112.77 C 194.84 112.88 187.41 112.97 179.98 113.01 C 172.32 113.03 164.67 113.05 157.01 113.03 C 149.79 112.94 142.58 112.94 135.37 112.61 Z" />
<path fill="#d89617" opacity="1.00" d=" M 202.27 112.77 L 202.77 112.78 C 202.86 119.92 202.76 127.06 202.78 134.20 C 202.54 127.06 202.35 119.91 202.27 112.77 Z" />
<path fill="#d89617" opacity="1.00" d=" M 202.01 179.96 C 209.67 179.97 217.33 179.99 225.00 180.00 C 225.00 195.00 225.00 209.99 225.00 224.99 C 217.67 225.00 210.34 225.01 203.02 225.02 C 203.01 232.35 203.00 239.67 202.99 247.00 C 195.38 247.00 187.78 247.02 180.18 247.04 L 180.20 246.18 C 180.96 232.38 181.00 218.55 180.25 204.75 C 180.23 204.33 180.21 203.50 180.20 203.08 L 180.17 202.20 L 180.85 202.24 C 187.88 202.62 194.93 202.90 201.98 203.17 C 201.98 195.77 201.99 188.37 202.01 180.98 L 202.01 179.96 Z" />
</g>
<g id="#f6d26cff">
<path fill="#f6d26c" opacity="1.00" d=" M 202.27 112.27 L 202.76 112.28 L 202.77 112.78 L 202.27 112.77 L 202.27 112.27 Z" />
<path fill="#f6d26c" opacity="1.00" d=" M 135.01 179.98 C 134.96 157.52 134.82 135.06 135.37 112.61 C 142.58 112.94 149.79 112.94 157.01 113.03 C 156.99 120.33 156.98 127.63 156.98 134.94 C 149.98 134.98 142.99 135.02 136.00 135.06 C 136.01 150.03 136.00 165.01 136.00 179.99 L 135.01 179.98 Z" />
<path fill="#f6d26c" opacity="1.00" d=" M 179.98 113.01 C 187.41 112.97 194.84 112.88 202.27 112.77 C 202.35 119.91 202.54 127.06 202.78 134.20 L 202.79 135.03 L 201.90 135.03 C 194.60 135.02 187.31 134.99 180.02 134.98 C 180.01 127.66 180.00 120.33 179.98 113.01 Z" />
<path fill="#f6d26c" opacity="1.00" d=" M 179.74 180.24 C 180.00 180.24 180.51 180.24 180.77 180.24 C 187.85 180.16 194.92 180.06 202.01 179.96 L 202.01 180.98 C 195.03 181.00 188.05 181.02 181.07 181.03 C 181.01 188.10 180.93 195.17 180.85 202.24 L 180.17 202.20 C 179.96 194.88 179.89 187.56 179.74 180.24 Z" />
<path fill="#f6d26c" opacity="1.00" d=" M 156.99 203.00 C 164.73 203.00 172.46 203.03 180.20 203.08 C 180.21 203.50 180.23 204.33 180.25 204.75 C 180.12 218.56 180.14 232.37 180.20 246.18 L 180.18 247.04 C 172.45 247.02 164.73 246.99 157.00 246.99 C 157.01 232.32 157.00 217.66 156.99 203.00 Z" />
</g>
<g id="#f9f86cff">
<path fill="#f9f86c" opacity="1.00" d=" M 157.01 113.03 C 164.67 113.05 172.32 113.03 179.98 113.01 C 180.00 120.33 180.01 127.66 180.02 134.98 C 187.31 134.99 194.60 135.02 201.90 135.03 C 201.95 142.35 201.98 149.67 202.00 156.99 L 202.01 157.99 C 194.61 158.00 187.21 158.01 179.82 158.03 C 180.08 165.43 180.34 172.84 180.77 180.24 C 180.51 180.24 180.00 180.24 179.74 180.24 C 165.16 180.05 150.58 180.05 136.00 179.99 C 136.00 165.01 136.01 150.03 136.00 135.06 C 142.99 135.02 149.98 134.98 156.98 134.94 C 156.98 127.63 156.99 120.33 157.01 113.03 Z" />
</g>
<g id="#fefdf5ff">
<path fill="#fefdf5" opacity="1.00" d=" M 201.90 135.03 L 202.79 135.03 C 210.20 135.02 217.60 135.01 225.01 135.00 C 225.00 142.33 225.00 149.66 225.00 157.00 C 217.33 157.00 209.67 156.99 202.00 156.99 C 201.98 149.67 201.95 142.35 201.90 135.03 Z" />
<path fill="#fefdf5" opacity="1.00" d=" M 179.82 158.03 C 187.21 158.01 194.61 158.00 202.01 157.99 C 202.01 165.31 202.00 172.63 202.01 179.96 C 194.92 180.06 187.85 180.16 180.77 180.24 C 180.34 172.84 180.08 165.43 179.82 158.03 Z" />
<path fill="#fefdf5" opacity="1.00" d=" M 135.01 179.98 L 136.00 179.99 C 150.58 180.05 165.16 180.05 179.74 180.24 C 179.89 187.56 179.96 194.88 180.17 202.20 L 180.20 203.08 C 172.46 203.03 164.73 203.00 156.99 203.00 C 149.66 202.99 142.33 203.00 135.00 203.00 C 135.01 195.33 135.02 187.65 135.01 179.98 Z" />
</g>
<g id="#e8b016ff">
<path fill="#e8b016" opacity="1.00" d=" M 202.00 156.99 C 209.67 156.99 217.33 157.00 225.00 157.00 C 224.99 164.67 224.99 172.33 225.00 180.00 C 217.33 179.99 209.67 179.97 202.01 179.96 C 202.00 172.63 202.01 165.31 202.01 157.99 L 202.00 156.99 Z" />
<path fill="#e8b016" opacity="1.00" d=" M 181.07 181.03 C 188.05 181.02 195.03 181.00 202.01 180.98 C 201.99 188.37 201.98 195.77 201.98 203.17 C 194.93 202.90 187.88 202.62 180.85 202.24 C 180.93 195.17 181.01 188.10 181.07 181.03 Z" />
<path fill="#e8b016" opacity="1.00" d=" M 180.25 204.75 C 181.00 218.55 180.96 232.38 180.20 246.18 C 180.14 232.37 180.12 218.56 180.25 204.75 Z" />
</g>
</svg>
